<?xml version="1.0" encoding="utf-8"?>
<!-- Generator: Adobe Illustrator 26.0.1, SVG Export Plug-In . SVG Version: 6.00 Build 0)  -->
<svg version="1.1" id="Layer_1" xmlns="http://www.w3.org/2000/svg" xmlns:xlink="http://www.w3.org/1999/xlink" x="0px" y="0px"
	 viewBox="0 0 1080 1080" style="enable-background:new 0 0 1080 1080;" xml:space="preserve">
<style type="text/css">
	.st0{fill:none;stroke:#F2B814;stroke-width:20;stroke-miterlimit:10;}
	.st1{fill:#232424;}
</style>
<g>
	<circle class="st0" cx="540" cy="540" r="527.5"/>
	<path class="st1" d="M817.8,471.5c-35.7,1.8-63.1,32.3-61.3,68c0.1,1.5,0.2,2.9,0.4,4.4c0,45.7,26.6,72.3,60.9,72.3
		c34.3,0,57.1-26.6,57.1-72.3S848.2,471.5,817.8,471.5 M585.7,471.5c-35.5,3.9-61.1,35.9-57.2,71.4c0,0.3,0.1,0.6,0.1,0.9
		c0,45.7,26.6,72.3,57.1,72.3s60.9-26.6,60.9-72.3S619.9,471.5,585.7,471.5 M357.3,471.5c-35.7,1.8-63.1,32.3-61.3,68
		c0.1,1.5,0.2,2.9,0.4,4.4c0,45.7,26.6,72.3,60.9,72.3s57.1-26.6,57.1-72.3S387.8,471.5,357.3,471.5 M540,18.6
		C252,18.6,18.6,252.1,18.6,540c0,287.9,233.4,521.4,521.4,521.4c288,0,521.4-233.4,521.4-521.4c0-1.3,0-2.5,0-3.8
		c0-285.8-231.7-517.6-517.6-517.6C542.5,18.6,541.3,18.6,540,18.6 M235.5,589.5c2.3,37.8-26.4,70.3-64.1,72.6c-4,0.2-8,0.1-12-0.3
		c-33.5-0.5-65.8-12.6-91.3-34.3l22.8-34.3c18.8,17,43.2,26.5,68.5,26.6c19,0,30.4-7.6,30.4-22.8s-22.8-22.8-45.7-30.4
		S79.5,543.8,79.5,502c-2.2-37.8,26.7-70.1,64.5-72.3c2.6-0.1,5.2-0.1,7.8,0c27.5,0.8,54.1,10.1,76.1,26.6l-19,38.1
		c-15.8-14-36-22-57.1-22.8c-19,0-26.6,11.4-26.6,22.8c0,19,19,22.8,45.7,34.3c26.6,11.4,64.7,22.8,64.7,64.7L235.5,589.5z
		 M463.9,543.8c0,76.1-45.7,118-95.1,118c-29.8-0.1-57.4-16-72.3-41.9v102.8h-45.7V433.4h45.7v34.3c14.9-25.8,42.5-41.8,72.3-41.9
		C418.2,425.8,463.9,467.7,463.9,543.8z M692.2,543.8c0,76.1-45.7,118-95.1,118c-28.7-0.6-54.8-16.6-68.5-41.9v102.8h-49.5V433.4
		h49.5v34.3c13.7-25.2,39.8-41.2,68.5-41.9C646.5,425.8,692.2,467.7,692.2,543.8z M924.4,543.8c0,76.1-45.7,118-95.1,118
		c-29.8-0.1-57.4-16-72.3-41.9v102.8h-45.7V433.4h45.7v34.3c14.9-25.8,42.5-41.8,72.3-41.9C874.9,425.8,924.4,467.7,924.4,543.8z
		 M989.1,658h-49.5V345.9h49.5V658z"/>
</g>
</svg>
