<svg preserveAspectRatio="xMidYMid meet" data-bbox="0 -0.1 226.1 106.9" viewBox="0 -0.1 226.1 106.9" xmlns="http://www.w3.org/2000/svg" data-type="color" role="img" aria-label="Solar-Print-Process-logo"><defs><style>#comp-lj6uf0pz svg [data-color="2"] {fill: #FFFFFF;}
#comp-lj6uf0pz svg [data-color="3"] {fill: #FFFFFF;}</style></defs>
    <g>
        <path d="M144.6 58.7H135V45.3h9.5c4.8 0 7.7 2.5 7.7 6.7 0 4-2.9 6.6-7.6 6.6" fill="#f2b814" data-color="1"></path>
        <path d="M133.9 20.8a7.1 7.1 0 1 1 0-14.2 6.9 6.9 0 0 1 6.4 4.2 10.9 10.9 0 0 1-.4-2.5 8.3 8.3 0 1 1 8.3 8.2 8 8 0 0 1-7.5-4.9 7.6 7.6 0 0 1 .3 2.1 7.1 7.1 0 0 1-7.1 7.1m26.7.4a6 6 0 1 1 6-5.9 5.9 5.9 0 0 1-6 5.9m24 4.1a5.9 5.9 0 1 1 6-5.9 5.9 5.9 0 0 1-6 5.9m-64.3 6.8a9.2 9.2 0 1 1 9.2-9.2 9.2 9.2 0 0 1-9.2 9.2m86.9 1.3a6 6 0 1 1 6-5.9 6 6 0 0 1-6 5.9m-48.4.1a6 6 0 0 1 0-11.9 6 6 0 1 1 0 11.9m48.3 33.9a7.6 7.6 0 1 1 0-15.1h1.5a9.6 9.6 0 0 1-7-9.3 9.8 9.8 0 1 1 9.7 9.7 7.5 7.5 0 0 1-2.1-.2 7.6 7.6 0 0 1-2.1 14.8m5.6 29.5a25.9 25.9 0 0 0-14.3-4.3 25.6 25.6 0 0 0-14.2 4.3l-.5-.7a26.8 26.8 0 0 1 29.4 0l-.4.7m-23.5-36.1a13.6 13.6 0 1 0 13.6 13.6 13.5 13.5 0 0 0-13.6-13.6m36.9 46.1h-1.2a28.9 28.9 0 0 0-53 0h-1.1a30.2 30.2 0 0 1 19.5-17.2h-1.2a15.5 15.5 0 0 1-15.4-15.5 15.2 15.2 0 0 1 4.8-11.2 8.3 8.3 0 0 1-5.3 2 8 8 0 0 1 0-16h.6a12.8 12.8 0 1 1 10.9-3.9 7.5 7.5 0 0 1 4.9-1.7 7.6 7.6 0 1 1-7.6 7.6 7.1 7.1 0 0 1 2-5.1 12.8 12.8 0 0 1-8.5 3.2h-1.1a8 8 0 0 1 6.7 7.9 7.5 7.5 0 0 1-2.3 5.6 15.8 15.8 0 0 1 10.3-3.9 15.5 15.5 0 0 1 5.2 30.1 27.3 27.3 0 0 1 4.1-.3 30 30 0 0 1 27.7 18.3" fill="#f2b814" data-color="1"></path>
        <path d="M13.8 75.5A22 22 0 0 1 0 70.8l3.1-3.6a18.1 18.1 0 0 0 10.8 3.9c5 0 6.8-2.5 6.8-4.9 0-3.3-2.7-4.5-8.5-6-7.8-2-11.3-3.9-11.3-10 0-6 4.7-10 11.6-10a19.8 19.8 0 0 1 11.9 3.7l-2.7 3.9c-3.4-2.1-6.4-3.2-9.3-3.2S6.3 47 6.3 49.3c0 3.7 3 4.7 9 6.2 7.9 2 10.7 4.6 10.7 9.7 0 6.3-4.7 10.1-12.2 10.1" fill="#232424" data-color="2"></path>
        <path d="M45.9 75.6C35.5 75.6 27.6 68 27.6 58v-.2a17.7 17.7 0 0 1 5.2-12.5A18.4 18.4 0 0 1 46 40.1c10.4 0 18.2 7.6 18.2 17.6A17.4 17.4 0 0 1 59 70.3a18.6 18.6 0 0 1-13.1 5.2m0-30.8c-7.1 0-12.5 5.6-12.5 12.9 0 7.4 5.5 13.1 12.6 13.1s12.5-5.6 12.5-12.9v-.2a12.7 12.7 0 0 0-12.6-13" fill="#232424" data-color="2"></path>
        <path fill="#232424" d="M91.4 74.9H67.6V40.7H73v29.6h18.4v4.6z" data-color="2"></path>
        <path d="M128.2 75h-5.5l-3.1-7.5-.3-.8h-17.5l-.4.8-3 7.5h-5.3l14.7-34.5h5.7Zm-17.7-29.8-1.2 3.1-5 12-.7 2h13.9l-.8-2-4.9-12Z" fill="#232424" data-color="2"></path>
        <path d="M157.6 75h-6.2l-7.5-11.3-.4-.6H135V75h-5.4V40.7h15.5c4.3 0 7.6 1.2 9.9 3.4a10.3 10.3 0 0 1 2.7 7.5 10.1 10.1 0 0 1-7 10.1l-1.7.7 8.6 12.5M135 45.3v13.4h9.6c4.7 0 7.6-2.6 7.6-6.6 0-4.2-2.9-6.7-7.7-6.7Z" fill="#232424" data-color="2"></path>
        <path d="M.1 81.9H1v2a4.1 4.1 0 0 1 3.6-2.2 4.3 4.3 0 0 1 4.3 4.6A4.4 4.4 0 0 1 4.6 91 4.2 4.2 0 0 1 1 88.9v4.7H.1V81.9M8 86.4a3.6 3.6 0 0 0-3.5-3.8 3.8 3.8 0 0 0-3.6 3.8 3.8 3.8 0 0 0 3.6 3.8c2 0 3.5-1.4 3.5-3.8" fill="#232424" data-color="2"></path>
        <path d="M10.7 81.9h.9v2.5a4.1 4.1 0 0 1 3.9-2.6v.9h-.1c-2 0-3.8 1.5-3.8 4.4v3.7h-.9v-8.9" fill="#232424" data-color="2"></path>
        <path d="M16.8 78.4h1.1v1.2h-1.1Zm.2 3.5h.8v8.9H17Z" fill="#232424" data-color="2"></path>
        <path d="M20.3 81.9h.8v1.6a3.5 3.5 0 0 1 3.2-1.8 3.4 3.4 0 0 1 3.6 3.6v5.5H27v-5.3a2.7 2.7 0 0 0-2.8-3 3.1 3.1 0 0 0-3.1 3.1v5.2h-.8v-8.9" fill="#232424" data-color="2"></path>
        <path d="M30.6 88.5v-5.8h-1.3v-.8h1.3v-2.8h.8v2.8h3.1v.8h-3.1v5.7c0 1.3.8 1.7 1.8 1.7l1.3-.3v.8a3.7 3.7 0 0 1-1.5.3 2.2 2.2 0 0 1-2.4-2.4" fill="#232424" data-color="2"></path>
        <path d="M40.5 81.9h.9v2a4.3 4.3 0 0 1 3.6-2.2 4.3 4.3 0 0 1 4.3 4.6A4.4 4.4 0 0 1 45 91a4.2 4.2 0 0 1-3.6-2.1v4.7h-.9V81.9m7.9 4.5a3.5 3.5 0 0 0-3.4-3.8 3.8 3.8 0 0 0-3.7 3.8 3.8 3.8 0 0 0 3.7 3.8c1.9 0 3.4-1.4 3.4-3.8" fill="#232424" data-color="2"></path>
        <path d="M51.1 81.9h.9v2.5a4.1 4.1 0 0 1 3.9-2.6v.9h-.1c-2 0-3.8 1.5-3.8 4.4v3.7h-.9v-8.9" fill="#232424" data-color="2"></path>
        <path d="M56.2 86.4a4.6 4.6 0 1 1 9.1 0 4.6 4.6 0 0 1-4.6 4.7 4.5 4.5 0 0 1-4.5-4.6m8.2 0a3.7 3.7 0 0 0-3.7-3.8 3.6 3.6 0 0 0-3.6 3.8 3.7 3.7 0 0 0 3.7 3.9 3.6 3.6 0 0 0 3.6-3.8" fill="#232424" data-color="2"></path>
        <path d="M66.5 86.4a4.5 4.5 0 0 1 4.5-4.6 4.7 4.7 0 0 1 3.5 1.6l-.6.6a4 4 0 0 0-2.9-1.4 3.7 3.7 0 0 0-3.6 3.8 3.7 3.7 0 0 0 3.6 3.9 4 4 0 0 0 3-1.5l.6.5a4.7 4.7 0 0 1-3.6 1.8 4.5 4.5 0 0 1-4.5-4.6" fill="#232424" data-color="2"></path>
        <path d="M75.3 86.4a4.3 4.3 0 0 1 4.2-4.6c2.5 0 4.1 2 4.1 4.6v.4h-7.3a3.5 3.5 0 0 0 3.5 3.5 3.9 3.9 0 0 0 3-1.4l.6.5a4.7 4.7 0 0 1-3.7 1.7 4.4 4.4 0 0 1-4.3-4.6m7.3-.5c-.1-1.8-1.1-3.4-3.2-3.4a3.3 3.3 0 0 0-3.2 3.4Z" fill="#232424" data-color="2"></path>
        <path d="m84.4 89.7.5-.7a5.6 5.6 0 0 0 3.2 1.1c1.2 0 2.1-.6 2.1-1.6s-1.1-1.4-2.3-1.8-3.1-.8-3.1-2.4c0-1.4 1.2-2.5 3-2.5a6 6 0 0 1 3.1 1l-.4.7a5.8 5.8 0 0 0-2.8-.9c-1.2 0-2 .7-2 1.6 0 1 1.2 1.4 2.5 1.7s2.9 1 2.9 2.5-1.3 2.5-3.1 2.5a6.5 6.5 0 0 1-3.6-1.2" fill="#232424" data-color="2"></path>
        <path d="m92 89.7.5-.7a5.6 5.6 0 0 0 3.2 1.1c1.2 0 2.1-.6 2.1-1.6s-1.1-1.4-2.3-1.8-3.1-.8-3.1-2.4c0-1.4 1.2-2.5 3-2.5a6 6 0 0 1 3.1 1l-.4.7a5.5 5.5 0 0 0-2.8-.9c-1.2 0-2 .7-2 1.6 0 1 1.2 1.4 2.5 1.7s2.9 1 2.9 2.5-1.3 2.5-3.1 2.5a6.5 6.5 0 0 1-3.6-1.2" fill="#232424" data-color="2"></path>
        <path d="M104.9 81.9h.9v2a4.1 4.1 0 0 1 3.6-2.2 4.3 4.3 0 0 1 4.3 4.6 4.4 4.4 0 0 1-4.3 4.7 4.1 4.1 0 0 1-3.6-2.1v4.7h-.9V81.9m7.9 4.5a3.6 3.6 0 0 0-3.5-3.8 3.8 3.8 0 0 0-3.6 3.8 3.8 3.8 0 0 0 3.6 3.8c2 0 3.5-1.4 3.5-3.8" fill="#232424" data-color="2"></path>
        <path fill="#232424" d="M114.2 81.9h1l3.3 7.9 3.4-7.9h1l-4 8.9h-.8l-3.9-8.9z" data-color="2"></path>
        <path d="M124.8 88.5v-5.8h-1.3v-.8h1.3v-2.8h.9v2.8h3.1v.8h-3.1v5.7a1.5 1.5 0 0 0 1.7 1.7 3.9 3.9 0 0 0 1.4-.3v.8a3.7 3.7 0 0 1-1.5.3 2.2 2.2 0 0 1-2.5-2.4" fill="#232424" data-color="2"></path>
        <path fill="#232424" d="M130.6 89.3v1.48h-1.1V89.3h1.1z" data-color="2"></path>
        <path fill="#232424" d="M138.4 78v12.7h-.9V78h.9z" data-color="2"></path>
        <path d="M141.2 88.5v-5.8H140v-.8h1.2v-2.8h.9v2.8h3.1v.8h-3.1v5.7c0 1.3.8 1.7 1.8 1.7l1.3-.3v.8a3.7 3.7 0 0 1-1.5.3 2.3 2.3 0 0 1-2.5-2.4" fill="#232424" data-color="2"></path>
        <path d="M146.1 86.4a4.3 4.3 0 0 1 8-2.5v-5.7h.8v12.7h-.8v-2a4.3 4.3 0 0 1-3.7 2.2 4.4 4.4 0 0 1-4.3-4.6m8 0a3.7 3.7 0 0 0-3.6-3.8 3.5 3.5 0 0 0-3.5 3.8 3.6 3.6 0 0 0 3.5 3.7 3.8 3.8 0 0 0 3.6-3.8" fill="#232424" data-color="2"></path>
        <path fill="#242323" d="M157.4 89.3v1.48h-1.1V89.3h1.1z" data-color="3"></path>
        <path d="M196.5 72.6a1.7 1.7 0 0 0-1.6 1.9c0 1.2.7 1.9 1.6 1.9s1.5-.7 1.5-1.9-.7-1.9-1.5-1.9m-6.1 0a1.7 1.7 0 0 0-1.5 1.9c0 1.2.7 1.9 1.5 1.9s1.6-.7 1.6-1.9-.7-1.9-1.6-1.9m-6 0a1.7 1.7 0 0 0-1.6 1.9c0 1.2.7 1.9 1.6 1.9s1.5-.7 1.5-1.9-.7-1.9-1.5-1.9m4.8-11.9a13.7 13.7 0 1 0 13.7 13.6 13.6 13.6 0 0 0-13.7-13.6m-8 15a1.8 1.8 0 0 1-2 1.9 3.8 3.8 0 0 1-2.4-.9l.6-.9a2.7 2.7 0 0 0 1.8.7c.5 0 .8-.2.8-.6 0-.4-.6-.6-1.2-.8s-1.7-.6-1.7-1.7a1.8 1.8 0 0 1 1.9-1.9 3.5 3.5 0 0 1 2 .7l-.5 1a2.4 2.4 0 0 0-1.5-.6c-.5 0-.7.3-.7.6 0 .5.5.6 1.2.9s1.7.6 1.7 1.7Zm6-1.2c0 2-1.2 3.1-2.5 3.1a2.2 2.2 0 0 1-1.9-1.1v2.7h-1.2v-7.6h1.2v.9a2.2 2.2 0 0 1 1.9-1.1c1.3 0 2.5 1.1 2.5 3.1Zm6 0c0 2-1.2 3.1-2.5 3.1a2.1 2.1 0 0 1-1.8-1.1v2.7h-1.3v-7.6h1.3v.9a2.1 2.1 0 0 1 1.8-1.1c1.3 0 2.5 1.1 2.5 3.1Zm6.1 0c0 2-1.2 3.1-2.5 3.1a2.2 2.2 0 0 1-1.9-1.1v2.7h-1.2v-7.6h1.2v.9a2.2 2.2 0 0 1 1.9-1.1c1.2 0 2.5 1.1 2.5 3.1Zm1.7 3h-1.3v-8.2h1.3Z" fill="#232424" data-color="2"></path>
    </g>
</svg>